HIERARCHY
ROOT hip
{
  OFFSET 0 90.174 2.4664
  CHANNELS 6 Xposition Yposition Zposition Zrotation Xrotation Yrotation
  JOINT abdomen
  {
    OFFSET 0 -1.186 -1.5018
    CHANNELS 6 Xposition Yposition Zposition Zrotation Xrotation Yrotation
    JOINT abdomen2
    {
      OFFSET 0 9.964 0.2134
      CHANNELS 6 Xposition Yposition Zposition Zrotation Xrotation Yrotation
      JOINT chest
      {
        OFFSET 0 13.134 -3.2573
        CHANNELS 6 Xposition Yposition Zposition Zrotation Xrotation Yrotation
        JOINT neck
        {
          OFFSET 0 20.686 -1.6905
          CHANNELS 6 Xposition Yposition Zposition Zrotation Xrotation Yrotation
          JOINT head
          {
            OFFSET 0 7.238 -0.1237
            CHANNELS 6 Xposition Yposition Zposition Zrotation Xrotation Yrotation
            End Site
            {
              OFFSET 0 0 0
            }
          }
        }
        JOINT lCollar
        {
          OFFSET 1.7069 20.075 5.0056
          CHANNELS 6 Xposition Yposition Zposition Zrotation Xrotation Yrotation
          JOINT lShldr
          {
            OFFSET 13.6458 -0.047 -4.849
            CHANNELS 6 Xposition Yposition Zposition Zrotation Xrotation Yrotation
            JOINT lForeArm
            {
              OFFSET 28.3255 -0.9759 2.2888
              CHANNELS 6 Xposition Yposition Zposition Zrotation Xrotation Yrotation
              JOINT lHand
              {
                OFFSET 22.1583 -0.53 10.8316
                CHANNELS 6 Xposition Yposition Zposition Zrotation Xrotation Yrotation
                JOINT lThumb1
                {
                  OFFSET 0.786 0.112 2.5817
                  CHANNELS 6 Xposition Yposition Zposition Zrotation Xrotation Yrotation
                  JOINT lThumb2
                  {
                    OFFSET 0.3601 -0.878 4.2331
                    CHANNELS 6 Xposition Yposition Zposition Zrotation Xrotation Yrotation
                    JOINT lThumb2_End
                    {
                      OFFSET 1.8127 -1.216 2.2227
                      CHANNELS 6 Xposition Yposition Zposition Zrotation Xrotation Yrotation
                      End Site
                      {
                        OFFSET 0.0181 -0.0122 0.0222
                      }
                    }
                  }
                }
                JOINT lCarpal1
                {
                  OFFSET 0.9571 1.114 1.7695
                  CHANNELS 6 Xposition Yposition Zposition Zrotation Xrotation Yrotation
                  JOINT lIndex1
                  {
                    OFFSET 4.1246 0.487 4.1451
                    CHANNELS 6 Xposition Yposition Zposition Zrotation Xrotation Yrotation
                    JOINT lIndex2
                    {
                      OFFSET 3.4052 -1.454 2.7682
                      CHANNELS 6 Xposition Yposition Zposition Zrotation Xrotation Yrotation
                      JOINT lIndex2_End
                      {
                        OFFSET 1.4531 -1.795 1.2713
                        CHANNELS 6 Xposition Yposition Zposition Zrotation Xrotation Yrotation
                        End Site
                        {
                          OFFSET 0.0145 -0.0179 0.0127
                        }
                      }
                    }
                  }
                  JOINT lMid1
                  {
                    OFFSET 5.6954 0.21 2.1184
                    CHANNELS 6 Xposition Yposition Zposition Zrotation Xrotation Yrotation
                    JOINT lMid2
                    {
                      OFFSET 3.9766 -1.54 2.3863
                      CHANNELS 6 Xposition Yposition Zposition Zrotation Xrotation Yrotation
                      JOINT lMid2_End
                      {
                        OFFSET 1.4042 -1.926 1.125
                        CHANNELS 6 Xposition Yposition Zposition Zrotation Xrotation Yrotation
                        End Site
                        {
                          OFFSET 0.014 -0.0193 0.0113
                        }
                      }
                    }
                  }
                }
                JOINT lCarpal2
                {
                  OFFSET 2.0956 0.66 -0.3894
                  CHANNELS 6 Xposition Yposition Zposition Zrotation Xrotation Yrotation
                  JOINT lRing1
                  {
                    OFFSET 5.0395 -0.09 2.4971
                    CHANNELS 6 Xposition Yposition Zposition Zrotation Xrotation Yrotation
                    JOINT lRing2
                    {
                      OFFSET 3.7921 -1.552 1.4806
                      CHANNELS 6 Xposition Yposition Zposition Zrotation Xrotation Yrotation
                      JOINT lRing2_End
                      {
                        OFFSET 1.4655 -1.808 0.9609
                        CHANNELS 6 Xposition Yposition Zposition Zrotation Xrotation Yrotation
                        End Site
                        {
                          OFFSET 0.0147 -0.0181 0.0096
                        }
                      }
                    }
                  }
                  JOINT lPinky1
                  {
                    OFFSET 4.9141 -1.269 0.3591
                    CHANNELS 6 Xposition Yposition Zposition Zrotation Xrotation Yrotation
                    JOINT lPinky2
                    {
                      OFFSET 3.1477 -1.685 0.8462
                      CHANNELS 6 Xposition Yposition Zposition Zrotation Xrotation Yrotation
                      JOINT lPinky2_End
                      {
                        OFFSET 0.8055 -1.585 0.7955
                        CHANNELS 6 Xposition Yposition Zposition Zrotation Xrotation Yrotation
                        End Site
                        {
                          OFFSET 0.0081 -0.0158 0.008
                        }
                      }
                    }
                  }
                }
              }
            }
          }
        }
        JOINT rCollar
        {
          OFFSET -1.7069 20.075 5.0056
          CHANNELS 6 Xposition Yposition Zposition Zrotation Xrotation Yrotation
          JOINT rShldr
          {
            OFFSET -13.6458 -0.047 -4.849
            CHANNELS 6 Xposition Yposition Zposition Zrotation Xrotation Yrotation
            JOINT rForeArm
            {
              OFFSET -28.3255 -0.9759 2.2888
              CHANNELS 6 Xposition Yposition Zposition Zrotation Xrotation Yrotation
              JOINT rHand
              {
                OFFSET -22.1583 -0.53 10.8316
                CHANNELS 6 Xposition Yposition Zposition Zrotation Xrotation Yrotation
                JOINT rThumb1
                {
                  OFFSET -0.786 0.112 2.5817
                  CHANNELS 6 Xposition Yposition Zposition Zrotation Xrotation Yrotation
                  JOINT rThumb2
                  {
                    OFFSET -0.3601 -0.878 4.2331
                    CHANNELS 6 Xposition Yposition Zposition Zrotation Xrotation Yrotation
                    JOINT rThumb2_End
                    {
                      OFFSET -1.8127 -1.216 2.2227
                      CHANNELS 6 Xposition Yposition Zposition Zrotation Xrotation Yrotation
                      End Site
                      {
                        OFFSET -0.0181 -0.0122 0.0222
                      }
                    }
                  }
                }
                JOINT rCarpal1
                {
                  OFFSET -0.9571 1.114 1.7695
                  CHANNELS 6 Xposition Yposition Zposition Zrotation Xrotation Yrotation
                  JOINT rIndex1
                  {
                    OFFSET -4.1246 0.487 4.1451
                    CHANNELS 6 Xposition Yposition Zposition Zrotation Xrotation Yrotation
                    JOINT rIndex2
                    {
                      OFFSET -3.4052 -1.454 2.7682
                      CHANNELS 6 Xposition Yposition Zposition Zrotation Xrotation Yrotation
                      JOINT rIndex2_End
                      {
                        OFFSET -1.4531 -1.795 1.2713
                        CHANNELS 6 Xposition Yposition Zposition Zrotation Xrotation Yrotation
                        End Site
                        {
                          OFFSET -0.0145 -0.018 0.0127
                        }
                      }
                    }
                  }
                  JOINT rMid1
                  {
                    OFFSET -5.6954 0.21 2.1184
                    CHANNELS 6 Xposition Yposition Zposition Zrotation Xrotation Yrotation
                    JOINT rMid2
                    {
                      OFFSET -3.9766 -1.54 2.3863
                      CHANNELS 6 Xposition Yposition Zposition Zrotation Xrotation Yrotation
                      JOINT rMid2_End
                      {
                        OFFSET -1.4042 -1.926 1.125
                        CHANNELS 6 Xposition Yposition Zposition Zrotation Xrotation Yrotation
                        End Site
                        {
                          OFFSET -0.014 -0.0193 0.0113
                        }
                      }
                    }
                  }
                }
                JOINT rCarpal2
                {
                  OFFSET -2.0956 0.66 -0.3894
                  CHANNELS 6 Xposition Yposition Zposition Zrotation Xrotation Yrotation
                  JOINT rRing1
                  {
                    OFFSET -5.0395 -0.09 2.4971
                    CHANNELS 6 Xposition Yposition Zposition Zrotation Xrotation Yrotation
                    JOINT rRing2
                    {
                      OFFSET -3.7921 -1.552 1.4806
                      CHANNELS 6 Xposition Yposition Zposition Zrotation Xrotation Yrotation
                      JOINT rRing2_End
                      {
                        OFFSET -1.4655 -1.808 0.9609
                        CHANNELS 6 Xposition Yposition Zposition Zrotation Xrotation Yrotation
                        End Site
                        {
                          OFFSET -0.0147 -0.0181 0.0096
                        }
                      }
                    }
                  }
                  JOINT rPinky1
                  {
                    OFFSET -4.9141 -1.269 0.3592
                    CHANNELS 6 Xposition Yposition Zposition Zrotation Xrotation Yrotation
                    JOINT rPinky2
                    {
                      OFFSET -3.1477 -1.685 0.8462
                      CHANNELS 6 Xposition Yposition Zposition Zrotation Xrotation Yrotation
                      JOINT rPinky2_End
                      {
                        OFFSET -0.8055 -1.585 0.7955
                        CHANNELS 6 Xposition Yposition Zposition Zrotation Xrotation Yrotation
                        End Site
                        {
                          OFFSET -0.0081 -0.0158 0.008
                        }
                      }
                    }
                  }
                }
              }
            }
          }
        }
      }
    }
  }
  JOINT lThigh
  {
    OFFSET 8.367 -8.2066 0.5982
    CHANNELS 6 Xposition Yposition Zposition Zrotation Xrotation Yrotation
    JOINT lShin
    {
      OFFSET 2.1923 -43.463 -0.4932
      CHANNELS 6 Xposition Yposition Zposition Zrotation Xrotation Yrotation
      JOINT lFoot
      {
        OFFSET 0.7333 -45.8593 -2.6451
        CHANNELS 6 Xposition Yposition Zposition Zrotation Xrotation Yrotation
        End Site
        {
          OFFSET 2.6618 -4.2699 12.3931
        }
      }
    }
  }
  JOINT rThigh
  {
    OFFSET -8.367 -8.2066 0.5982
    CHANNELS 6 Xposition Yposition Zposition Zrotation Xrotation Yrotation
    JOINT rShin
    {
      OFFSET -2.1923 -43.463 -0.4931
      CHANNELS 6 Xposition Yposition Zposition Zrotation Xrotation Yrotation
      JOINT rFoot
      {
        OFFSET -0.7333 -45.8593 -2.6451
        CHANNELS 6 Xposition Yposition Zposition Zrotation Xrotation Yrotation
        End Site
        {
          OFFSET -2.6618 -4.2699 12.3931
        }
      }
    }
  }
}
MOTION
Frames:	4
Frame Time:	0.0333333
-0.190159 79.2181 -50.1495 -0 -69.0033 -0 0 -1.186 -1.5018 -0.380884 16.0044 -0.00931192 0 9.964 0.2134 -0.80962 32.0084 0.103973 4.44089e-016 13.134 -3.2573 -0.809619 32.0084 0.103973 -4.44089e-016 20.686 -1.6905 2.02538e-005 -10.3229 5.87086e-006 0 7.238 -0.1237 1.19352e-007 -9.3836 -1.41782e-007 1.7069 20.075 5.0056 -9.77821 0.0256516 1.36748 13.6458 -0.047 -4.849 7.06829 47.2838 -1.95974 28.3255 -0.9759 2.2888 0.0794898 0.658835 7.78172 22.1583 -0.53 10.8316 -4.07558 6.53305 0.616412 0.786 0.112 2.5817 7.95139e-016 3.18055e-015 -7.95139e-016 0.3601 -0.878 4.2331 1.89344e-006 -5.89906e-008 2.10607e-007 1.8127 -1.216 2.2227 -5.04648e-007 1.53344e-007 -2.35637e-006 0.9571 1.114 1.7695 7.95139e-016 0 -7.95139e-016 4.1246 0.487 4.1451 -3.18055e-015 -6.36111e-015 5.56597e-015 3.4052 -1.454 2.7682 1.89344e-006 -5.89906e-008 2.10607e-007 1.4531 -1.795 1.2713 -5.04648e-007 1.53344e-007 -2.35637e-006 5.6954 0.21 2.1184 -3.18055e-015 -6.36111e-015 5.56597e-015 3.9766 -1.54 2.3863 1.89344e-006 -5.89906e-008 2.10607e-007 1.4042 -1.926 1.125 -5.04648e-007 1.53344e-007 -2.35637e-006 2.0956 0.66 -0.3894 7.95139e-016 0 -7.95139e-016 5.0395 -0.09 2.4971 -3.18055e-015 -6.36111e-015 5.56597e-015 3.7921 -1.552 1.4806 1.89344e-006 -5.89906e-008 2.10607e-007 1.4655 -1.808 0.9609 -5.04648e-007 1.53344e-007 -2.35637e-006 4.9141 -1.269 0.3591 -3.18055e-015 -6.36111e-015 5.56597e-015 3.1477 -1.685 0.8462 1.89344e-006 -5.89906e-008 2.10607e-007 0.8055 -1.585 0.7955 -5.04648e-007 1.53344e-007 -2.35637e-006 -1.7069 20.075 5.0056 9.96126 0.0229126 -1.22353 -13.6458 -0.047 -4.849 -6.75886 47.292 2.46122 -28.3255 -0.9759 2.2888 -1.87581 0.750317 -8.85205 -22.1583 -0.53 10.8316 3.08819 6.22457 -0.629144 -0.786 0.112 2.5817 -6.80399e-007 -3.68492e-006 1.10336e-006 -0.3601 -0.878 4.2331 1.18164e-006 -2.05063e-006 -1.06151e-006 -1.8127 -1.216 2.2227 -6.80399e-007 -3.68492e-006 1.10336e-006 -0.9571 1.114 1.7695 1.59028e-015 -6.36111e-015 -0 -4.1246 0.487 4.1451 -6.80399e-007 -3.68492e-006 1.10336e-006 -3.4052 -1.454 2.7682 1.18164e-006 -2.05063e-006 -1.06151e-006 -1.4531 -1.795 1.2713 -6.80399e-007 -3.68492e-006 1.10336e-006 -5.6954 0.21 2.1184 -6.80399e-007 -3.68492e-006 1.10336e-006 -3.9766 -1.54 2.3863 1.18164e-006 -2.05063e-006 -1.06151e-006 -1.4042 -1.926 1.125 -6.80399e-007 -3.68492e-006 1.10336e-006 -2.0956 0.66 -0.3894 1.59028e-015 -6.36111e-015 -0 -5.0395 -0.09 2.4971 -6.80399e-007 -3.68492e-006 1.10336e-006 -3.7921 -1.552 1.4806 1.18164e-006 -2.05063e-006 -1.06151e-006 -1.4655 -1.808 0.9609 -6.80399e-007 -3.68492e-006 1.10336e-006 -4.9141 -1.269 0.3592 -6.80399e-007 -3.68492e-006 1.10336e-006 -3.1477 -1.685 0.8462 1.18164e-006 -2.05063e-006 -1.06151e-006 -0.8055 -1.585 0.7955 -6.80399e-007 -3.68492e-006 1.10336e-006 8.367 -8.2066 0.5982 128.489 -53.5356 137.301 2.1923 -43.463 -0.4932 79.3871 74.9567 -75.7332 0.7333 -45.8593 -2.6451 7.14461 37.3627 2.34162 -8.367 -8.2066 0.5982 -133.633 -54.0338 -143.331 -2.1923 -43.463 -0.4931 -99.968 74.4325 95.2535 -0.7333 -45.8593 -2.6451 -6.62946 35.9741 -5.10696 
-0.177107 79.2216 -50.153 -0 -69.0033 -0 0 -1.186 -1.5018 -0.380207 16.071 -0.010864 0 9.964 0.2134 -0.808135 32.1416 0.10111 2.22045e-016 13.134 -3.2573 -0.808135 32.1416 0.10111 0 20.686 -1.6905 3.34557e-005 -9.64229 5.80451e-006 -4.44089e-016 7.238 -0.1237 9.76688e-008 -8.76478 -1.8227e-007 1.7069 20.075 5.0056 -9.65122 0.0113391 1.26949 13.6458 -0.047 -4.849 7.06828 47.2838 -1.95975 28.3255 -0.9759 2.2888 0.0794852 0.658828 7.78171 22.1583 -0.53 10.8316 -4.2488 6.24931 0.579832 0.786 0.112 2.5817 -6.62086e-032 -3.18055e-015 -1.19271e-015 0.3601 -0.878 4.2331 3.65549e-007 4.21327e-006 -2.81356e-006 1.8127 -1.216 2.2227 -1.56734e-007 -7.73193e-006 -6.21436e-007 0.9571 1.114 1.7695 -4.41391e-032 -3.18055e-015 -7.95139e-016 4.1246 0.487 4.1451 -7.95139e-016 -6.36111e-015 5.96354e-015 3.4052 -1.454 2.7682 3.65549e-007 4.21327e-006 -2.81356e-006 1.4531 -1.795 1.2713 -1.56734e-007 -7.73193e-006 -6.21436e-007 5.6954 0.21 2.1184 -7.95139e-016 -6.36111e-015 5.96354e-015 3.9766 -1.54 2.3863 3.65549e-007 4.21327e-006 -2.81356e-006 1.4042 -1.926 1.125 -1.56734e-007 -7.73193e-006 -6.21436e-007 2.0956 0.66 -0.3894 -4.41391e-032 -3.18055e-015 -7.95139e-016 5.0395 -0.09 2.4971 -7.95139e-016 -6.36111e-015 5.96354e-015 3.7921 -1.552 1.4806 3.65549e-007 4.21327e-006 -2.81356e-006 1.4655 -1.808 0.9609 -1.56734e-007 -7.73193e-006 -6.21436e-007 4.9141 -1.269 0.3591 -7.95139e-016 -6.36111e-015 5.96354e-015 3.1477 -1.685 0.8462 3.65549e-007 4.21327e-006 -2.81356e-006 0.8055 -1.585 0.7955 -1.56734e-007 -7.73193e-006 -6.21436e-007 -1.7069 20.075 5.0056 9.82096 0.00875873 -1.13605 -13.6458 -0.047 -4.849 -6.75886 47.292 2.46121 -28.3255 -0.9759 2.2888 -1.87581 0.750318 -8.85205 -22.1583 -0.53 10.8316 3.33059 5.96515 -0.589441 -0.786 0.112 2.5817 -1.59028e-015 3.18055e-015 -0 -0.3601 -0.878 4.2331 1.17374e-008 -2.10633e-006 -8.04302e-007 -1.8127 -1.216 2.2227 -7.95139e-016 0 -0 -0.9571 1.114 1.7695 -1.59028e-015 0 -0 -4.1246 0.487 4.1451 -1.59028e-015 3.18055e-015 5.1684e-015 -3.4052 -1.454 2.7682 1.17374e-008 -2.10633e-006 -8.04302e-007 -1.4531 -1.795 1.2713 7.95139e-016 -9.54166e-015 1.59028e-015 -5.6954 0.21 2.1184 -1.59028e-015 3.18055e-015 5.1684e-015 -3.9766 -1.54 2.3863 1.17374e-008 -2.10633e-006 -8.04302e-007 -1.4042 -1.926 1.125 7.95139e-016 -9.54166e-015 1.59028e-015 -2.0956 0.66 -0.3894 -1.59028e-015 0 -0 -5.0395 -0.09 2.4971 -1.59028e-015 3.18055e-015 5.1684e-015 -3.7921 -1.552 1.4806 1.17374e-008 -2.10633e-006 -8.04302e-007 -1.4655 -1.808 0.9609 7.95139e-016 -9.54166e-015 1.59028e-015 -4.9141 -1.269 0.3592 -1.59028e-015 3.18055e-015 5.1684e-015 -3.1477 -1.685 0.8462 1.17374e-008 -2.10633e-006 -8.04302e-007 -0.8055 -1.585 0.7955 7.95139e-016 -9.54166e-015 1.59028e-015 8.367 -8.2066 0.5982 128.337 -53.4012 137.166 2.1923 -43.463 -0.4932 79.4634 74.9598 -75.7956 0.7333 -45.8593 -2.6451 7.25899 37.4366 2.12702 -8.367 -8.2066 0.5982 -133.09 -53.8812 -142.74 -2.1923 -43.463 -0.4931 -98.6482 74.5276 93.9958 -0.7333 -45.8593 -2.6451 -6.76972 36.1481 -4.70281 
-0.163967 79.2252 -50.1565 -0 -69.0033 -0 0 -1.186 -1.5018 -0.379507 16.1376 -0.0124156 0 9.964 0.2134 -0.806596 32.2749 0.0982351 0 13.134 -3.2573 -0.806597 32.2749 0.0982357 0 20.686 -1.6905 -1.51951e-005 -8.96152 -2.3971e-006 0 7.238 -0.1237 5.21511e-008 -8.14576 3.15664e-008 1.7069 20.075 5.0056 -9.52426 -0.00319074 1.17153 13.6458 -0.047 -4.849 7.06829 47.2838 -1.95975 28.3255 -0.9759 2.2888 0.0794866 0.658829 7.78171 22.1583 -0.53 10.8316 -4.42211 5.96566 0.542406 0.786 0.112 2.5817 1.38434e-006 -2.02455e-006 -6.20565e-007 0.3601 -0.878 4.2331 -9.67551e-007 1.22417e-007 -1.64111e-006 1.8127 -1.216 2.2227 4.62932e-007 3.1179e-008 -7.15241e-007 0.9571 1.114 1.7695 7.95139e-016 3.18055e-015 -0 4.1246 0.487 4.1451 1.38434e-006 -2.02455e-006 -6.20565e-007 3.4052 -1.454 2.7682 -9.67551e-007 1.22417e-007 -1.64111e-006 1.4531 -1.795 1.2713 4.62932e-007 3.1179e-008 -7.15241e-007 5.6954 0.21 2.1184 1.38434e-006 -2.02455e-006 -6.20565e-007 3.9766 -1.54 2.3863 -9.67551e-007 1.22417e-007 -1.64111e-006 1.4042 -1.926 1.125 4.62932e-007 3.1179e-008 -7.15241e-007 2.0956 0.66 -0.3894 7.95139e-016 3.18055e-015 -0 5.0395 -0.09 2.4971 1.38434e-006 -2.02455e-006 -6.20565e-007 3.7921 -1.552 1.4806 -9.67551e-007 1.22417e-007 -1.64111e-006 1.4655 -1.808 0.9609 4.62932e-007 3.1179e-008 -7.15241e-007 4.9141 -1.269 0.3591 1.38434e-006 -2.02455e-006 -6.20565e-007 3.1477 -1.685 0.8462 -9.67551e-007 1.22417e-007 -1.64111e-006 0.8055 -1.585 0.7955 4.62932e-007 3.1179e-008 -7.15241e-007 -1.7069 20.075 5.0056 9.68069 -0.00560834 -1.04861 -13.6458 -0.047 -4.849 -6.75886 47.292 2.46122 -28.3255 -0.9759 2.2888 -1.87581 0.750339 -8.85205 -22.1583 -0.53 10.8316 3.57308 5.70583 -0.548653 -0.786 0.112 2.5817 9.37188e-007 -2.11653e-006 -2.23809e-006 -0.3601 -0.878 4.2331 -4.66472e-007 3.53771e-006 -2.86033e-006 -1.8127 -1.216 2.2227 0 0 -0 -0.9571 1.114 1.7695 -0 0 1.59028e-015 -4.1246 0.487 4.1451 9.37188e-007 -2.11653e-006 -2.23809e-006 -3.4052 -1.454 2.7682 -4.66472e-007 3.53771e-006 -2.86033e-006 -1.4531 -1.795 1.2713 -4.41391e-032 3.18055e-015 7.95139e-016 -5.6954 0.21 2.1184 9.37188e-007 -2.11653e-006 -2.23809e-006 -3.9766 -1.54 2.3863 -4.66472e-007 3.53771e-006 -2.86033e-006 -1.4042 -1.926 1.125 -4.41391e-032 3.18055e-015 7.95139e-016 -2.0956 0.66 -0.3894 -0 0 1.59028e-015 -5.0395 -0.09 2.4971 9.37188e-007 -2.11653e-006 -2.23809e-006 -3.7921 -1.552 1.4806 -4.66472e-007 3.53771e-006 -2.86033e-006 -1.4655 -1.808 0.9609 -4.41391e-032 3.18055e-015 7.95139e-016 -4.9141 -1.269 0.3592 9.37188e-007 -2.11653e-006 -2.23809e-006 -3.1477 -1.685 0.8462 -4.66472e-007 3.53771e-006 -2.86033e-006 -0.8055 -1.585 0.7955 -4.41391e-032 3.18055e-015 7.95139e-016 8.367 -8.2066 0.5982 128.186 -53.2665 137.031 2.1923 -43.463 -0.4932 79.5405 74.9629 -75.8588 0.7333 -45.8593 -2.6451 7.37381 37.5101 1.91205 -8.367 -8.2066 0.5982 -132.551 -53.7256 -142.154 -2.1923 -43.463 -0.4931 -97.3121 74.6147 92.7216 -0.7333 -45.8593 -2.6451 -6.91215 36.3214 -4.29709 
-0.150743 79.2289 -50.1601 -0 -69.0033 -0 0 -1.186 -1.5018 -0.378782 16.2043 -0.0139674 0 9.964 0.2134 -0.805002 32.4083 0.0953495 0 13.134 -3.2573 -0.805002 32.4083 0.0953501 0 20.686 -1.6905 -8.61248e-008 -8.28046 6.94761e-007 -4.44089e-016 7.238 -0.1237 1.83116e-007 -7.52658 2.19169e-007 1.7069 20.075 5.0056 -9.39731 -0.0179305 1.0736 13.6458 -0.047 -4.849 7.06829 47.2838 -1.95975 28.3255 -0.9759 2.2888 0.0794857 0.658824 7.78171 22.1583 -0.53 10.8316 -4.59554 5.68207 0.50414 0.786 0.112 2.5817 -8.19602e-007 -1.5166e-006 -2.58862e-006 0.3601 -0.878 4.2331 1.00417e-007 -2.06421e-006 5.8105e-007 1.8127 -1.216 2.2227 7.95139e-016 3.18055e-015 3.97569e-016 0.9571 1.114 1.7695 -0 0 3.97569e-016 4.1246 0.487 4.1451 -8.19602e-007 -1.5166e-006 -2.58862e-006 3.4052 -1.454 2.7682 1.00417e-007 -2.06421e-006 5.8105e-007 1.4531 -1.795 1.2713 -0 0 7.95139e-016 5.6954 0.21 2.1184 -8.19602e-007 -1.5166e-006 -2.58862e-006 3.9766 -1.54 2.3863 1.00417e-007 -2.06421e-006 5.8105e-007 1.4042 -1.926 1.125 -0 0 7.95139e-016 2.0956 0.66 -0.3894 -0 0 3.97569e-016 5.0395 -0.09 2.4971 -8.19602e-007 -1.5166e-006 -2.58862e-006 3.7921 -1.552 1.4806 1.00417e-007 -2.06421e-006 5.8105e-007 1.4655 -1.808 0.9609 -0 0 7.95139e-016 4.9141 -1.269 0.3591 -8.19602e-007 -1.5166e-006 -2.58862e-006 3.1477 -1.685 0.8462 1.00417e-007 -2.06421e-006 5.8105e-007 0.8055 -1.585 0.7955 -0 0 7.95139e-016 -1.7069 20.075 5.0056 9.54043 -0.0201863 -0.961201 -13.6458 -0.047 -4.849 -6.75886 47.292 2.46122 -28.3255 -0.9759 2.2888 -1.8758 0.750329 -8.85204 -22.1583 -0.53 10.8316 3.81568 5.44669 -0.506769 -0.786 0.112 2.5817 4.59707e-007 -6.34084e-009 -7.16574e-007 -0.3601 -0.878 4.2331 -4.59707e-007 6.34081e-009 7.16574e-007 -1.8127 -1.216 2.2227 4.59707e-007 -6.34085e-009 -7.16574e-007 -0.9571 1.114 1.7695 7.95139e-016 -6.36111e-015 7.95139e-016 -4.1246 0.487 4.1451 4.59707e-007 -6.34083e-009 -7.16574e-007 -3.4052 -1.454 2.7682 -4.59707e-007 6.34081e-009 7.16574e-007 -1.4531 -1.795 1.2713 4.59707e-007 -6.34084e-009 -7.16574e-007 -5.6954 0.21 2.1184 4.59707e-007 -6.34083e-009 -7.16574e-007 -3.9766 -1.54 2.3863 -4.59707e-007 6.34081e-009 7.16574e-007 -1.4042 -1.926 1.125 4.59707e-007 -6.34084e-009 -7.16574e-007 -2.0956 0.66 -0.3894 7.95139e-016 -6.36111e-015 7.95139e-016 -5.0395 -0.09 2.4971 4.59707e-007 -6.34083e-009 -7.16574e-007 -3.7921 -1.552 1.4806 -4.59707e-007 6.34081e-009 7.16574e-007 -1.4655 -1.808 0.9609 4.59707e-007 -6.34084e-009 -7.16574e-007 -4.9141 -1.269 0.3592 4.59707e-007 -6.34083e-009 -7.16574e-007 -3.1477 -1.685 0.8462 -4.59707e-007 6.34081e-009 7.16574e-007 -0.8055 -1.585 0.7955 4.59707e-007 -6.34084e-009 -7.16574e-007 8.367 -8.2066 0.5982 128.036 -53.1315 136.898 2.1923 -43.463 -0.4932 79.6187 74.9661 -75.9231 0.7333 -45.8593 -2.6451 7.4891 37.583 1.69671 -8.367 -8.2066 0.5982 -132.018 -53.5667 -141.572 -2.1923 -43.463 -0.4931 -95.9621 74.6937 91.4334 -0.7333 -45.8593 -2.6451 -7.05668 36.4941 -3.88988 
